<svg xmlns="http://www.w3.org/2000/svg" width="159.358" height="76.388" viewBox="0 0 159.358 76.388">
  <path id="front-end" d="M25.431-34.4v6.713H11.417v7.252H21.9v6.517H11.417V0H3.038V-34.4ZM47.383,0,40.229-12.985H38.22V0H29.841V-34.4H43.9a15.482,15.482,0,0,1,6.934,1.421,9.788,9.788,0,0,1,4.287,3.9,10.87,10.87,0,0,1,1.421,5.512,10.239,10.239,0,0,1-1.935,6.125A10.417,10.417,0,0,1,48.9-13.622L56.84,0ZM38.22-18.914h5.194a4.755,4.755,0,0,0,3.454-1.127,4.254,4.254,0,0,0,1.152-3.185,4.121,4.121,0,0,0-1.152-3.087,4.755,4.755,0,0,0-3.454-1.127H38.22ZM78.057.343a17.953,17.953,0,0,1-8.894-2.254,16.85,16.85,0,0,1-6.419-6.3,17.6,17.6,0,0,1-2.376-9.09,17.467,17.467,0,0,1,2.376-9.065,16.9,16.9,0,0,1,6.419-6.272,17.953,17.953,0,0,1,8.894-2.254,17.953,17.953,0,0,1,8.894,2.254,16.549,16.549,0,0,1,6.37,6.272A17.752,17.752,0,0,1,95.648-17.3,17.74,17.74,0,0,1,93.3-8.208a16.723,16.723,0,0,1-6.37,6.3A17.816,17.816,0,0,1,78.057.343Zm0-7.644a8.441,8.441,0,0,0,6.59-2.744A10.417,10.417,0,0,0,87.122-17.3a10.4,10.4,0,0,0-2.475-7.276,8.478,8.478,0,0,0-6.59-2.72,8.575,8.575,0,0,0-6.64,2.695,10.378,10.378,0,0,0-2.474,7.3,10.4,10.4,0,0,0,2.474,7.277A8.537,8.537,0,0,0,78.057-7.3ZM131.075,0H122.7L108.682-21.217V0H100.3V-34.4h8.379L122.7-13.083V-34.4h8.379ZM161.9-34.4v6.713h-9.114V0H144.4V-27.685h-9.114V-34.4ZM11.417,13.315v6.958H22.638v6.468H11.417v7.546H24.108V41H3.038V6.6h21.07v6.713ZM60.319,41H51.94L37.926,19.783V41H29.547V6.6h8.379L51.94,27.917V6.6h8.379ZM79.282,6.6a20.008,20.008,0,0,1,9.506,2.156,15.4,15.4,0,0,1,6.3,6.052A17.78,17.78,0,0,1,97.314,23.8a17.817,17.817,0,0,1-2.229,8.967,15.322,15.322,0,0,1-6.321,6.076A20.045,20.045,0,0,1,79.282,41H66.395V6.6Zm-.539,27.146q4.753,0,7.4-2.6t2.646-7.35a10,10,0,0,0-2.646-7.4,10,10,0,0,0-7.4-2.646H74.774V33.748Z" transform="translate(-2.788 35.138)" fill="#fff" stroke="#2b2b2b" stroke-width="0.5"/>
</svg>
