<svg xmlns="http://www.w3.org/2000/svg" width="270.382" height="35.231" viewBox="0 0 270.382 35.231">
  <path id="developer" d="M15.925-34.4a20.008,20.008,0,0,1,9.506,2.156,15.4,15.4,0,0,1,6.3,6.052A17.78,17.78,0,0,1,33.957-17.2a17.817,17.817,0,0,1-2.229,8.967,15.322,15.322,0,0,1-6.321,6.076A20.045,20.045,0,0,1,15.925,0H3.038V-34.4ZM15.386-7.252q4.753,0,7.4-2.6t2.646-7.35a10,10,0,0,0-2.646-7.4,10,10,0,0,0-7.4-2.646H11.417V-7.252ZM47.04-27.685v6.958H58.261v6.468H47.04v7.546H59.731V0H38.661V-34.4h21.07v6.713ZM97.461-34.4,85.26,0H74.774l-12.2-34.4h8.918l8.526,25.97L88.592-34.4Zm11.858,6.713v6.958H120.54v6.468H109.319v7.546H122.01V0H100.94V-34.4h21.07v6.713ZM135.828-6.468H146.8V0H127.449V-34.4h8.379ZM167.09.343A17.953,17.953,0,0,1,158.2-1.911a16.85,16.85,0,0,1-6.419-6.3A17.6,17.6,0,0,1,149.4-17.3a17.467,17.467,0,0,1,2.376-9.065,16.9,16.9,0,0,1,6.419-6.272,17.953,17.953,0,0,1,8.893-2.254,17.953,17.953,0,0,1,8.893,2.254,16.549,16.549,0,0,1,6.37,6.272,17.752,17.752,0,0,1,2.327,9.065,17.739,17.739,0,0,1-2.352,9.09,16.723,16.723,0,0,1-6.37,6.3A17.816,17.816,0,0,1,167.09.343Zm0-7.644a8.441,8.441,0,0,0,6.59-2.744,10.417,10.417,0,0,0,2.475-7.252,10.4,10.4,0,0,0-2.475-7.276,8.478,8.478,0,0,0-6.59-2.72,8.575,8.575,0,0,0-6.639,2.695,10.378,10.378,0,0,0-2.475,7.3,10.4,10.4,0,0,0,2.475,7.277A8.537,8.537,0,0,0,167.09-7.3Zm48.461-16.023a11.077,11.077,0,0,1-1.372,5.464,10.087,10.087,0,0,1-4.214,3.993,14.835,14.835,0,0,1-7.056,1.519h-5.194V0h-8.379V-34.4h13.573a15.446,15.446,0,0,1,6.958,1.421,9.766,9.766,0,0,1,4.263,3.92A11.393,11.393,0,0,1,215.551-23.324Zm-13.279,4.312a5,5,0,0,0,3.577-1.127,4.2,4.2,0,0,0,1.176-3.185,4.2,4.2,0,0,0-1.176-3.185,5,5,0,0,0-3.577-1.127h-4.557v8.624Zm26.019-8.673v6.958h11.221v6.468H228.291v7.546h12.691V0h-21.07V-34.4h21.07v6.713ZM263.963,0l-7.154-12.985H254.8V0h-8.379V-34.4h14.063a15.482,15.482,0,0,1,6.934,1.421,9.789,9.789,0,0,1,4.288,3.9,10.87,10.87,0,0,1,1.421,5.512,10.239,10.239,0,0,1-1.935,6.125,10.417,10.417,0,0,1-5.708,3.822L273.42,0ZM254.8-18.914h5.194a4.755,4.755,0,0,0,3.454-1.127,4.254,4.254,0,0,0,1.151-3.185,4.121,4.121,0,0,0-1.151-3.087,4.755,4.755,0,0,0-3.454-1.127H254.8Z" transform="translate(-3.038 34.888)" fill="#2b2b2b"/>
</svg>
